<svg xmlns="http://www.w3.org/2000/svg" xmlns:xlink="http://www.w3.org/1999/xlink" width="368" zoomAndPan="magnify" viewBox="0 0 276 105.749996" height="141" preserveAspectRatio="xMidYMid meet" version="1.2"><defs><clipPath id="92eb6db69f"><path d="M 234 45 L 274.925781 45 L 274.925781 82 L 234 82 Z M 234 45 "/></clipPath><clipPath id="a76c8bd143"><path d="M 0.832031 13.515625 L 76.769531 13.515625 L 76.769531 89.253906 L 0.832031 89.253906 Z M 0.832031 13.515625 "/></clipPath><clipPath id="1aee757f3d"><path d="M 8.410156 21.074219 L 69.421875 21.074219 L 69.421875 81.921875 L 8.410156 81.921875 Z M 8.410156 21.074219 "/></clipPath><clipPath id="768379fe1d"><path d="M 38.917969 21.074219 C 22.066406 21.074219 8.410156 34.695312 8.410156 51.5 C 8.410156 68.300781 22.066406 81.921875 38.917969 81.921875 C 55.765625 81.921875 69.421875 68.300781 69.421875 51.5 C 69.421875 34.695312 55.765625 21.074219 38.917969 21.074219 Z M 38.917969 21.074219 "/></clipPath><clipPath id="3cd27044d9"><path d="M 13.753906 26.40625 L 64.078125 26.40625 L 64.078125 76.59375 L 13.753906 76.59375 Z M 13.753906 26.40625 "/></clipPath><clipPath id="05862195d8"><path d="M 38.917969 26.40625 C 25.019531 26.40625 13.753906 37.640625 13.753906 51.5 C 13.753906 65.359375 25.019531 76.59375 38.917969 76.59375 C 52.8125 76.59375 64.078125 65.359375 64.078125 51.5 C 64.078125 37.640625 52.8125 26.40625 38.917969 26.40625 Z M 38.917969 26.40625 "/></clipPath><clipPath id="3bf852e864"><path d="M 10.476562 23.140625 L 67.351562 23.140625 L 67.351562 79.863281 L 10.476562 79.863281 Z M 10.476562 23.140625 "/></clipPath><clipPath id="ace741be1c"><path d="M 38.917969 23.140625 C 23.210938 23.140625 10.476562 35.835938 10.476562 51.5 C 10.476562 67.164062 23.210938 79.863281 38.917969 79.863281 C 54.621094 79.863281 67.351562 67.164062 67.351562 51.5 C 67.351562 35.835938 54.621094 23.140625 38.917969 23.140625 Z M 38.917969 23.140625 "/></clipPath><clipPath id="2ae0b4acc1"><path d="M 13.078125 25.730469 L 65 25.730469 L 65 77.464844 L 13.078125 77.464844 Z M 13.078125 25.730469 "/></clipPath><clipPath id="9d7846a0e4"><path d="M 128.179688 25.730469 L 142.746094 25.730469 L 142.746094 40.257812 L 128.179688 40.257812 Z M 128.179688 25.730469 "/></clipPath><clipPath id="2dd95234ea"><path d="M 135.464844 25.730469 C 131.441406 25.730469 128.179688 28.980469 128.179688 32.992188 C 128.179688 37.007812 131.441406 40.257812 135.464844 40.257812 C 139.484375 40.257812 142.746094 37.007812 142.746094 32.992188 C 142.746094 28.980469 139.484375 25.730469 135.464844 25.730469 Z M 135.464844 25.730469 "/></clipPath></defs><g id="fcd7d22820"><path style=" stroke:none;fill-rule:nonzero;fill:#000000;fill-opacity:1;" d="M 122.566406 51.066406 C 125.695312 54.484375 127.261719 58.667969 127.261719 63.613281 C 127.261719 68.558594 125.695312 72.734375 122.566406 76.144531 C 119.429688 79.554688 115.445312 81.253906 110.613281 81.253906 C 106.175781 81.253906 102.523438 79.671875 99.664062 76.5 L 99.535156 76.5 L 99.535156 80.273438 L 88.109375 80.273438 L 88.109375 24.324219 L 99.664062 24.324219 L 99.664062 50.082031 C 102.523438 47.3125 106.175781 45.925781 110.613281 45.925781 C 115.445312 45.925781 119.429688 47.640625 122.566406 51.066406 Z M 112.839844 69.25 C 114.277344 67.789062 114.996094 65.910156 114.996094 63.613281 C 114.996094 61.316406 114.242188 59.433594 112.742188 57.957031 C 111.234375 56.476562 109.375 55.738281 107.160156 55.738281 C 104.988281 55.738281 103.148438 56.476562 101.648438 57.957031 C 100.152344 59.433594 99.40625 61.316406 99.40625 63.613281 C 99.40625 65.871094 100.132812 67.742188 101.589844 69.222656 C 103.046875 70.695312 104.902344 71.429688 107.160156 71.429688 C 109.507812 71.429688 111.402344 70.703125 112.839844 69.25 Z M 112.839844 69.25 "/><path style=" stroke:none;fill-rule:nonzero;fill:#000000;fill-opacity:1;" d="M 130.5 28.296875 C 131.847656 26.949219 133.457031 26.273438 135.324219 26.273438 C 137.199219 26.273438 138.8125 26.949219 140.164062 28.296875 C 141.515625 29.636719 142.191406 31.242188 142.191406 33.109375 C 142.191406 34.972656 141.515625 36.578125 140.164062 37.921875 C 138.8125 39.261719 137.199219 39.929688 135.324219 39.929688 C 133.457031 39.929688 131.847656 39.261719 130.5 37.921875 C 129.15625 36.578125 128.484375 34.972656 128.484375 33.109375 C 128.484375 31.242188 129.15625 29.636719 130.5 28.296875 Z M 129.398438 46.894531 L 129.398438 80.273438 L 140.949219 80.273438 L 140.949219 46.894531 Z M 129.398438 46.894531 "/><path style=" stroke:none;fill-rule:nonzero;fill:#000000;fill-opacity:1;" d="M 184.074219 46.894531 L 168.152344 62.84375 L 185.628906 80.273438 L 170.75 80.273438 L 157.386719 66.929688 L 157.386719 80.273438 L 145.835938 80.273438 L 145.835938 24.324219 L 157.386719 24.324219 L 157.386719 58.542969 L 169.066406 46.894531 Z M 184.074219 46.894531 "/><path style=" stroke:none;fill-rule:nonzero;fill:#000000;fill-opacity:1;" d="M 218.5625 65.179688 L 194.304688 65.179688 C 194.304688 67.523438 195.066406 69.261719 196.589844 70.390625 C 198.109375 71.511719 199.761719 72.070312 201.542969 72.070312 C 203.40625 72.070312 204.886719 71.824219 205.96875 71.328125 C 207.0625 70.828125 208.304688 69.839844 209.695312 68.367188 L 218.050781 72.527344 C 214.566406 78.347656 208.785156 81.253906 200.703125 81.253906 C 195.65625 81.253906 191.324219 79.53125 187.707031 76.085938 C 184.101562 72.632812 182.296875 68.476562 182.296875 63.625 C 182.296875 58.765625 184.101562 54.605469 187.707031 51.136719 C 191.324219 47.664062 195.65625 45.925781 200.703125 45.925781 C 206.003906 45.925781 210.316406 47.457031 213.636719 50.511719 C 216.96875 53.570312 218.636719 57.9375 218.636719 63.613281 C 218.636719 64.402344 218.609375 64.921875 218.5625 65.179688 Z M 194.632812 58.796875 L 207.355469 58.796875 C 207.085938 57.0625 206.398438 55.730469 205.285156 54.796875 C 204.179688 53.867188 202.757812 53.402344 201.015625 53.402344 C 199.101562 53.402344 197.578125 53.898438 196.445312 54.898438 C 195.324219 55.894531 194.71875 57.195312 194.632812 58.796875 Z M 194.632812 58.796875 "/><path style=" stroke:none;fill-rule:nonzero;fill:#000000;fill-opacity:1;" d="M 220.78125 24.324219 L 232.332031 24.324219 L 232.332031 80.273438 L 220.78125 80.273438 Z M 220.78125 24.324219 "/><g clip-rule="nonzero" clip-path="url(#92eb6db69f)"><path style=" stroke:none;fill-rule:nonzero;fill:#000000;fill-opacity:1;" d="M 240.046875 76.3125 C 236.332031 73.011719 234.476562 68.78125 234.476562 63.625 C 234.476562 58.464844 236.410156 54.222656 240.273438 50.910156 C 244.148438 47.585938 248.933594 45.925781 254.636719 45.925781 C 260.242188 45.925781 264.96875 47.597656 268.816406 50.9375 C 272.671875 54.269531 274.597656 58.496094 274.597656 63.613281 C 274.597656 68.730469 272.71875 72.949219 268.960938 76.269531 C 265.195312 79.597656 260.425781 81.253906 254.636719 81.253906 C 248.632812 81.253906 243.765625 79.609375 240.046875 76.3125 Z M 248.984375 57.957031 C 247.488281 59.433594 246.742188 61.316406 246.742188 63.613281 C 246.742188 65.910156 247.460938 67.789062 248.898438 69.25 C 250.332031 70.703125 252.226562 71.429688 254.566406 71.429688 C 256.832031 71.429688 258.695312 70.695312 260.148438 69.222656 C 261.605469 67.742188 262.335938 65.871094 262.335938 63.613281 C 262.335938 61.316406 261.582031 59.433594 260.078125 57.957031 C 258.582031 56.476562 256.746094 55.738281 254.566406 55.738281 C 252.347656 55.738281 250.488281 56.476562 248.984375 57.957031 Z M 248.984375 57.957031 "/></g><g clip-rule="nonzero" clip-path="url(#a76c8bd143)"><path style=" stroke:none;fill-rule:nonzero;fill:#000000;fill-opacity:1;" d="M 38.632812 81.1875 C 22.125 81.089844 8.820312 67.664062 8.917969 51.199219 C 9.011719 34.734375 22.472656 21.464844 38.980469 21.5625 C 55.488281 21.65625 68.792969 35.082031 68.699219 51.546875 C 68.605469 68.011719 55.144531 81.28125 38.632812 81.1875 Z M 74.035156 50.496094 C 73.671875 50.183594 73.40625 49.820312 73.167969 49.421875 C 72.949219 49.023438 72.808594 48.589844 72.777344 48.121094 C 72.730469 47.652344 72.773438 47.203125 72.917969 46.769531 C 72.992188 46.554688 73.089844 46.339844 73.199219 46.140625 C 73.300781 45.9375 73.425781 45.742188 73.574219 45.558594 C 74.152344 44.824219 75.027344 44.234375 76.0625 44.027344 C 76.066406 44.027344 76.066406 44.027344 76.066406 44.027344 C 75.824219 42.785156 75.519531 41.558594 75.15625 40.359375 C 75.15625 40.359375 75.15625 40.359375 75.152344 40.359375 C 74.148438 40.664062 73.089844 40.546875 72.234375 40.167969 C 71.796875 39.980469 71.433594 39.710938 71.09375 39.402344 C 70.761719 39.085938 70.5 38.710938 70.332031 38.273438 C 69.949219 37.417969 70.011719 36.464844 70.328125 35.59375 C 70.664062 34.71875 71.328125 33.894531 72.253906 33.394531 C 71.65625 32.277344 71.003906 31.203125 70.296875 30.160156 C 69.414062 30.75 68.378906 30.949219 67.449219 30.835938 C 67.214844 30.808594 66.992188 30.757812 66.769531 30.691406 C 66.546875 30.625 66.332031 30.542969 66.125 30.441406 C 65.921875 30.339844 65.734375 30.21875 65.554688 30.070312 C 65.378906 29.929688 65.21875 29.765625 65.0625 29.589844 C 64.757812 29.234375 64.550781 28.824219 64.425781 28.382812 C 64.289062 27.953125 64.238281 27.492188 64.269531 27.019531 C 64.347656 26.078125 64.714844 25.117188 65.460938 24.359375 C 65.460938 24.359375 65.460938 24.359375 65.460938 24.355469 C 64.566406 23.472656 63.625 22.632812 62.640625 21.835938 C 62.640625 21.839844 62.636719 21.839844 62.636719 21.84375 C 61.96875 22.667969 61.035156 23.152344 60.121094 23.3125 C 59.660156 23.394531 59.183594 23.410156 58.738281 23.328125 C 58.511719 23.285156 58.296875 23.222656 58.089844 23.132812 C 57.875 23.054688 57.664062 22.953125 57.46875 22.828125 C 56.691406 22.300781 56.171875 21.527344 55.960938 20.597656 C 55.75 19.679688 55.816406 18.65625 56.308594 17.710938 C 56.308594 17.707031 56.3125 17.703125 56.3125 17.699219 C 55.195312 17.121094 54.046875 16.59375 52.871094 16.125 C 52.871094 16.128906 52.871094 16.132812 52.867188 16.136719 C 52.46875 17.125 51.734375 17.84375 50.898438 18.28125 C 50.058594 18.730469 49.128906 18.839844 48.226562 18.597656 C 47.996094 18.535156 47.785156 18.441406 47.585938 18.332031 C 47.382812 18.222656 47.195312 18.105469 47.015625 17.964844 C 46.660156 17.683594 46.363281 17.324219 46.125 16.910156 C 45.648438 16.113281 45.410156 15.097656 45.597656 14.054688 C 45.597656 14.050781 45.597656 14.046875 45.597656 14.042969 C 44.367188 13.824219 43.113281 13.65625 41.84375 13.554688 C 41.84375 13.558594 41.84375 13.5625 41.84375 13.566406 C 41.753906 14.628906 41.269531 15.53125 40.597656 16.195312 C 39.921875 16.878906 39.070312 17.246094 38.128906 17.289062 C 37.1875 17.285156 36.324219 16.941406 35.621094 16.289062 C 34.929688 15.648438 34.40625 14.765625 34.28125 13.710938 C 34.28125 13.707031 34.28125 13.703125 34.28125 13.699219 C 33.015625 13.847656 31.765625 14.058594 30.546875 14.328125 C 30.546875 14.332031 30.546875 14.335938 30.546875 14.339844 C 30.773438 15.375 30.578125 16.398438 30.128906 17.210938 C 29.90625 17.632812 29.621094 18.007812 29.277344 18.300781 C 29.109375 18.453125 28.921875 18.574219 28.726562 18.691406 C 28.527344 18.808594 28.320312 18.90625 28.097656 18.976562 C 27.199219 19.257812 26.273438 19.183594 25.414062 18.765625 C 24.5625 18.367188 23.800781 17.667969 23.363281 16.699219 C 23.359375 16.695312 23.359375 16.691406 23.359375 16.6875 C 22.199219 17.203125 21.070312 17.773438 19.980469 18.394531 C 19.980469 18.398438 19.984375 18.402344 19.984375 18.40625 C 20.246094 18.863281 20.40625 19.355469 20.480469 19.839844 C 20.550781 20.332031 20.527344 20.804688 20.445312 21.277344 C 20.355469 21.746094 20.191406 22.179688 19.949219 22.558594 C 19.890625 22.65625 19.824219 22.75 19.753906 22.835938 C 19.6875 22.929688 19.617188 23.019531 19.539062 23.105469 C 19.386719 23.273438 19.214844 23.425781 19.023438 23.558594 C 18.832031 23.699219 18.625 23.800781 18.417969 23.894531 C 18.210938 23.992188 17.996094 24.0625 17.773438 24.109375 C 17.332031 24.210938 16.851562 24.210938 16.390625 24.148438 C 15.46875 24.027344 14.519531 23.570312 13.820312 22.777344 C 13.820312 22.773438 13.820312 22.773438 13.816406 22.769531 C 12.867188 23.597656 11.957031 24.476562 11.089844 25.394531 C 11.089844 25.394531 11.089844 25.394531 11.089844 25.398438 C 11.867188 26.121094 12.273438 27.070312 12.382812 28.011719 C 12.433594 28.484375 12.398438 28.941406 12.28125 29.378906 C 12.175781 29.824219 11.980469 30.242188 11.6875 30.605469 C 11.394531 30.972656 11.0625 31.28125 10.660156 31.5 C 10.460938 31.609375 10.246094 31.699219 10.023438 31.773438 C 9.808594 31.851562 9.585938 31.910156 9.351562 31.945312 C 8.429688 32.09375 7.386719 31.933594 6.484375 31.378906 C 5.820312 32.441406 5.207031 33.546875 4.648438 34.679688 C 5.597656 35.148438 6.289062 35.945312 6.65625 36.808594 C 7.007812 37.664062 7.109375 38.617188 6.761719 39.484375 C 6.609375 39.929688 6.363281 40.3125 6.039062 40.640625 C 5.960938 40.722656 5.875 40.800781 5.789062 40.875 C 5.707031 40.949219 5.621094 41.023438 5.527344 41.089844 C 5.34375 41.226562 5.144531 41.347656 4.933594 41.453125 C 4.089844 41.867188 3.042969 42.019531 2.019531 41.753906 C 1.703125 42.964844 1.445312 44.199219 1.25 45.453125 C 1.25 45.453125 1.25 45.453125 1.253906 45.453125 C 2.300781 45.621094 3.195312 46.175781 3.800781 46.890625 C 4.386719 47.609375 4.777344 48.492188 4.695312 49.421875 C 4.671875 50.359375 4.195312 51.195312 3.53125 51.84375 C 2.847656 52.484375 1.894531 52.941406 0.832031 52.992188 C 0.890625 54.261719 1.007812 55.515625 1.1875 56.75 C 2.230469 56.605469 3.253906 56.875 4.050781 57.378906 C 4.246094 57.503906 4.429688 57.648438 4.59375 57.804688 C 4.761719 57.960938 4.914062 58.128906 5.054688 58.308594 C 5.335938 58.667969 5.539062 59.078125 5.644531 59.535156 C 5.757812 59.988281 5.785156 60.445312 5.703125 60.894531 C 5.617188 61.347656 5.46875 61.78125 5.242188 62.1875 C 4.78125 63 4.003906 63.71875 3.007812 64.074219 C 3.003906 64.074219 3.003906 64.074219 3.003906 64.074219 C 3.429688 65.265625 3.917969 66.429688 4.457031 67.5625 C 5.414062 67.109375 6.472656 67.066406 7.375 67.316406 C 8.269531 67.574219 9.074219 68.09375 9.542969 68.902344 C 9.796875 69.300781 9.941406 69.734375 10 70.1875 C 10.054688 70.640625 10.054688 71.097656 9.945312 71.558594 C 9.847656 72.015625 9.660156 72.472656 9.394531 72.898438 C 9.136719 73.316406 8.800781 73.699219 8.371094 74.015625 C 8.371094 74.019531 8.371094 74.019531 8.371094 74.019531 C 9.128906 75.027344 9.933594 76 10.789062 76.925781 C 10.792969 76.925781 10.792969 76.925781 10.792969 76.921875 C 11.578125 76.207031 12.570312 75.859375 13.5 75.839844 C 13.964844 75.835938 14.445312 75.882812 14.871094 76.03125 C 15.304688 76.171875 15.6875 76.414062 16.050781 76.714844 C 16.40625 77.019531 16.664062 77.40625 16.859375 77.8125 C 17.058594 78.214844 17.175781 78.667969 17.214844 79.140625 C 17.230469 79.378906 17.226562 79.621094 17.207031 79.859375 C 17.1875 80.097656 17.144531 80.335938 17.085938 80.574219 C 16.960938 81.050781 16.75 81.515625 16.433594 81.949219 C 16.433594 81.949219 16.429688 81.949219 16.429688 81.949219 C 17.449219 82.695312 18.503906 83.386719 19.597656 84.027344 C 19.601562 84.023438 19.601562 84.019531 19.601562 84.015625 C 20.144531 83.101562 20.984375 82.488281 21.867188 82.191406 C 22.773438 81.871094 23.703125 81.90625 24.5625 82.273438 C 24.992188 82.472656 25.351562 82.761719 25.664062 83.082031 C 25.96875 83.414062 26.210938 83.816406 26.386719 84.257812 C 26.738281 85.125 26.820312 86.160156 26.476562 87.164062 C 26.476562 87.167969 26.472656 87.167969 26.472656 87.171875 C 27.660156 87.574219 28.875 87.925781 30.113281 88.214844 C 30.117188 88.210938 30.117188 88.207031 30.117188 88.203125 C 30.238281 87.6875 30.457031 87.21875 30.734375 86.8125 C 31.015625 86.410156 31.355469 86.078125 31.738281 85.789062 C 32.503906 85.21875 33.40625 84.96875 34.335938 85.074219 C 34.570312 85.105469 34.792969 85.164062 35.011719 85.242188 C 35.226562 85.320312 35.433594 85.40625 35.628906 85.523438 C 36.019531 85.746094 36.371094 86.054688 36.667969 86.429688 C 37.261719 87.152344 37.648438 88.117188 37.617188 89.175781 C 37.617188 89.179688 37.617188 89.183594 37.617188 89.1875 C 37.929688 89.195312 38.25 89.203125 38.5625 89.207031 C 39.519531 89.210938 40.464844 89.179688 41.402344 89.117188 C 41.402344 89.113281 41.402344 89.109375 41.402344 89.105469 C 41.332031 88.050781 41.683594 87.066406 42.246094 86.328125 C 42.527344 85.941406 42.867188 85.617188 43.25 85.375 C 43.441406 85.253906 43.644531 85.160156 43.855469 85.078125 C 44.066406 84.988281 44.292969 84.921875 44.519531 84.882812 C 45.449219 84.742188 46.359375 84.957031 47.144531 85.496094 C 47.539062 85.769531 47.890625 86.085938 48.191406 86.484375 C 48.484375 86.878906 48.71875 87.335938 48.859375 87.847656 C 48.859375 87.851562 48.859375 87.855469 48.859375 87.855469 C 50.089844 87.523438 51.289062 87.128906 52.460938 86.675781 C 52.457031 86.671875 52.457031 86.667969 52.457031 86.664062 C 52.078125 85.675781 52.121094 84.640625 52.433594 83.757812 C 52.746094 82.855469 53.351562 82.152344 54.179688 81.710938 C 54.390625 81.605469 54.609375 81.527344 54.828125 81.46875 C 55.050781 81.417969 55.273438 81.371094 55.496094 81.355469 C 55.949219 81.320312 56.414062 81.382812 56.871094 81.523438 C 57.761719 81.785156 58.628906 82.367188 59.207031 83.257812 C 59.207031 83.261719 59.207031 83.265625 59.207031 83.269531 C 60.277344 82.589844 61.304688 81.855469 62.296875 81.074219 C 62.292969 81.074219 62.292969 81.070312 62.289062 81.070312 C 61.960938 80.65625 61.734375 80.195312 61.589844 79.726562 C 61.519531 79.488281 61.472656 79.253906 61.441406 79.015625 C 61.40625 78.773438 61.398438 78.535156 61.40625 78.296875 C 61.425781 77.820312 61.527344 77.371094 61.707031 76.957031 C 61.886719 76.539062 62.132812 76.148438 62.476562 75.828125 C 62.828125 75.515625 63.199219 75.257812 63.628906 75.097656 C 64.054688 74.9375 64.523438 74.867188 64.988281 74.855469 C 65.921875 74.839844 66.925781 75.15625 67.738281 75.835938 C 67.738281 75.839844 67.738281 75.839844 67.738281 75.839844 C 68.558594 74.882812 69.328125 73.878906 70.050781 72.84375 C 70.046875 72.84375 70.046875 72.84375 70.046875 72.839844 C 69.605469 72.539062 69.261719 72.171875 68.980469 71.757812 C 68.699219 71.347656 68.496094 70.898438 68.378906 70.441406 C 68.320312 70.21875 68.28125 69.984375 68.265625 69.757812 C 68.25 69.53125 68.253906 69.304688 68.273438 69.074219 C 68.3125 68.617188 68.445312 68.183594 68.683594 67.777344 C 69.113281 66.949219 69.902344 66.402344 70.785156 66.105469 C 71.675781 65.824219 72.738281 65.828125 73.710938 66.242188 C 74.207031 65.089844 74.648438 63.910156 75.027344 62.699219 C 74.015625 62.382812 73.210938 61.695312 72.71875 60.902344 C 72.59375 60.703125 72.492188 60.496094 72.414062 60.28125 C 72.332031 60.066406 72.253906 59.847656 72.207031 59.625 C 72.109375 59.179688 72.117188 58.726562 72.210938 58.265625 C 72.296875 57.808594 72.484375 57.386719 72.75 57.015625 C 72.890625 56.832031 73.035156 56.65625 73.195312 56.492188 C 73.355469 56.332031 73.535156 56.183594 73.726562 56.046875 C 74.496094 55.515625 75.511719 55.203125 76.558594 55.3125 C 76.691406 54.074219 76.765625 52.8125 76.769531 51.542969 C 75.710938 51.53125 74.738281 51.113281 74.035156 50.496094 "/></g><g clip-rule="nonzero" clip-path="url(#1aee757f3d)"><g clip-rule="nonzero" clip-path="url(#768379fe1d)"><path style=" stroke:none;fill-rule:nonzero;fill:#000000;fill-opacity:1;" d="M 8.410156 21.074219 L 69.421875 21.074219 L 69.421875 81.921875 L 8.410156 81.921875 Z M 8.410156 21.074219 "/></g></g><g clip-rule="nonzero" clip-path="url(#3cd27044d9)"><g clip-rule="nonzero" clip-path="url(#05862195d8)"><path style=" stroke:none;fill-rule:nonzero;fill:#000814;fill-opacity:1;" d="M 13.753906 26.40625 L 64.078125 26.40625 L 64.078125 76.59375 L 13.753906 76.59375 Z M 13.753906 26.40625 "/></g></g><g clip-rule="nonzero" clip-path="url(#3bf852e864)"><g clip-rule="nonzero" clip-path="url(#ace741be1c)"><path style=" stroke:none;fill-rule:nonzero;fill:#ffb700;fill-opacity:1;" d="M 10.476562 23.140625 L 67.351562 23.140625 L 67.351562 79.863281 L 10.476562 79.863281 Z M 10.476562 23.140625 "/></g></g><g clip-rule="nonzero" clip-path="url(#2ae0b4acc1)"><path style=" stroke:none;fill-rule:evenodd;fill:#000814;fill-opacity:1;" d="M 38.917969 25.730469 C 53.183594 25.730469 64.753906 37.269531 64.753906 51.5 C 64.753906 65.726562 53.183594 77.265625 38.917969 77.265625 C 24.644531 77.265625 13.078125 65.726562 13.078125 51.5 C 13.078125 37.269531 24.644531 25.730469 38.917969 25.730469 Z M 49.753906 46.75 L 39.011719 40.566406 L 28.273438 46.75 L 39.011719 52.933594 Z M 26.386719 45.429688 L 37.355469 39.113281 L 34.582031 36.109375 C 34.371094 35.882812 34.042969 35.832031 33.773438 35.988281 L 23.96875 41.632812 C 23.789062 41.734375 23.679688 41.898438 23.644531 42.101562 C 23.617188 42.304688 23.675781 42.492188 23.8125 42.640625 Z M 40.648438 39.101562 L 51.625 45.421875 L 54.027344 42.734375 C 54.160156 42.582031 54.214844 42.394531 54.183594 42.191406 C 54.152344 41.992188 54.039062 41.832031 53.867188 41.730469 L 44.050781 36.082031 C 43.777344 35.925781 43.4375 35.976562 43.230469 36.210938 Z M 50.792969 48.554688 L 40.0625 54.734375 L 40.0625 67.097656 L 50.464844 61.109375 C 50.671875 60.988281 50.792969 60.785156 50.792969 60.542969 Z M 37.964844 67.097656 L 37.964844 54.734375 L 27.234375 48.554688 L 27.234375 60.542969 C 27.234375 60.785156 27.351562 60.988281 27.5625 61.109375 Z M 37.964844 67.097656 "/></g><g clip-rule="nonzero" clip-path="url(#9d7846a0e4)"><g clip-rule="nonzero" clip-path="url(#2dd95234ea)"><path style=" stroke:none;fill-rule:nonzero;fill:#ffb700;fill-opacity:1;" d="M 128.179688 25.730469 L 142.746094 25.730469 L 142.746094 40.257812 L 128.179688 40.257812 Z M 128.179688 25.730469 "/></g></g></g></svg>