<?xml version="1.0"?>
<svg width="276.00000000000006" height="105.749996" xmlns="http://www.w3.org/2000/svg" xmlns:svg="http://www.w3.org/2000/svg" preserveAspectRatio="xMidYMid meet" version="1.2">
 <defs>
  <clipPath id="92eb6db69f">
   <path d="m234,45l40.93,0l0,37l-40.93,0l0,-37zm0,0" id="svg_1"/>
  </clipPath>
  <clipPath id="a76c8bd143">
   <path d="m0.83,13.52l75.94,0l0,75.73l-75.94,0l0,-75.73zm0,0" id="svg_2"/>
  </clipPath>
  <clipPath id="1aee757f3d">
   <path d="m8.41,21.07l61.01,0l0,60.85l-61.01,0l0,-60.85zm0,0" id="svg_3"/>
  </clipPath>
  <clipPath id="768379fe1d">
   <path d="m38.92,21.07c-16.85,0 -30.51,13.63 -30.51,30.43c0,16.8 13.66,30.42 30.51,30.42c16.85,0 30.5,-13.62 30.5,-30.42c0,-16.8 -13.65,-30.43 -30.5,-30.43zm0,0" id="svg_4"/>
  </clipPath>
  <clipPath id="3cd27044d9">
   <path d="m13.75,26.41l50.33,0l0,50.18l-50.33,0l0,-50.18zm0,0" id="svg_5"/>
  </clipPath>
  <clipPath id="05862195d8">
   <path d="m38.92,26.41c-13.9,0 -25.17,11.23 -25.17,25.09c0,13.86 11.27,25.09 25.17,25.09c13.89,0 25.16,-11.23 25.16,-25.09c0,-13.86 -11.27,-25.09 -25.16,-25.09zm0,0" id="svg_6"/>
  </clipPath>
  <clipPath id="3bf852e864">
   <path d="m10.48,23.14l56.87,0l0,56.72l-56.87,0l0,-56.72zm0,0" id="svg_7"/>
  </clipPath>
  <clipPath id="ace741be1c">
   <path d="m38.92,22.89c-15.71,0 -28.44,12.7 -28.44,28.36c0,15.66 12.73,28.36 28.44,28.36c15.7,0 28.43,-12.7 28.43,-28.36c0,-15.66 -12.73,-28.36 -28.43,-28.36zm0,0" id="svg_8"/>
  </clipPath>
  <clipPath id="2ae0b4acc1">
   <path d="m13.08,25.73l51.92,0l0,51.73l-51.92,0l0,-51.73zm0,0" id="svg_9"/>
  </clipPath>
  <clipPath id="9d7846a0e4">
   <path d="m128.18,25.73l14.57,0l0,14.53l-14.57,0l0,-14.53zm0,0" id="svg_10"/>
  </clipPath>
  <clipPath id="2dd95234ea">
   <path d="m135.46,25.73c-4.02,0 -7.28,3.25 -7.28,7.26c0,4.02 3.26,7.27 7.28,7.27c4.02,0 7.29,-3.25 7.29,-7.27c0,-4.01 -3.27,-7.26 -7.29,-7.26zm0,0" id="svg_11"/>
  </clipPath>
 </defs>
 <g class="layer">
  <title>Layer 1</title>
  <g id="fcd7d22820">
   <ellipse cx="38.87" cy="51.53" fill="#ffb700" id="svg_22" rx="25.1" ry="25.11"/>
   <path d="m122.57,50.57c3.13,3.41 4.69,7.6 4.69,12.54c0,4.95 -1.56,9.12 -4.69,12.53c-3.14,3.41 -7.12,5.11 -11.96,5.11c-4.43,0 -8.09,-1.58 -10.95,-4.75l-0.12,0l0,3.77l-11.43,0l0,-55.95l11.55,0l0,25.76c2.86,-2.77 6.52,-4.15 10.95,-4.15c4.84,0 8.82,1.71 11.96,5.14zm-9.73,18.18c1.44,-1.46 2.16,-3.34 2.16,-5.64c0,-2.29 -0.76,-4.18 -2.26,-5.65c-1.51,-1.48 -3.36,-2.22 -5.58,-2.22c-2.17,0 -4.01,0.74 -5.51,2.22c-1.5,1.47 -2.24,3.36 -2.24,5.65c0,2.26 0.72,4.13 2.18,5.61c1.46,1.48 3.31,2.21 5.57,2.21c2.35,0 4.24,-0.73 5.68,-2.18zm0,0" fill="#ffffff" fill-rule="nonzero" id="svg_12" transform="matrix(1 0 0 1 0 0)"/>
   <path d="m130.5,28.05c1.35,-1.35 2.96,-2.03 4.82,-2.03c1.88,0 3.49,0.68 4.84,2.03c1.36,1.34 2.03,2.94 2.03,4.81c0,1.86 -0.67,3.47 -2.03,4.81c-1.35,1.34 -2.96,2.01 -4.84,2.01c-1.86,0 -3.47,-0.67 -4.82,-2.01c-1.34,-1.34 -2.02,-2.95 -2.02,-4.81c0,-1.87 0.68,-3.47 2.02,-4.81zm-1.1,18.59l0,33.38l11.55,0l0,-33.38l-11.55,0zm0,0" fill="#ffffff" fill-rule="nonzero" id="svg_13" transform="matrix(1 0 0 1 0 0)"/>
   <path d="m184.07,46.89l-15.92,15.95l17.48,17.43l-14.88,0l-13.36,-13.34l0,13.34l-11.55,0l0,-55.95l11.55,0l0,34.22l11.68,-11.65l15,0zm0,0" fill="#ffffff" fill-rule="nonzero" id="svg_14" transform="matrix(1 0 0 1 0 0)"/>
   <path d="m218.56,65.18l-24.26,0c0,2.34 0.77,4.08 2.29,5.21c1.52,1.12 3.17,1.68 4.95,1.68c1.87,0 3.35,-0.25 4.43,-0.74c1.09,-0.5 2.33,-1.49 3.73,-2.96l8.35,4.16c-3.48,5.82 -9.26,8.72 -17.35,8.72c-5.04,0 -9.38,-1.72 -12.99,-5.16c-3.61,-3.46 -5.41,-7.61 -5.41,-12.46c0,-4.86 1.8,-9.02 5.41,-12.49c3.61,-3.48 7.95,-5.21 12.99,-5.21c5.3,0 9.62,1.53 12.94,4.58c3.33,3.06 5,7.43 5,13.1c0,0.79 -0.03,1.31 -0.08,1.57zm-23.93,-6.38l12.73,0c-0.27,-1.74 -0.96,-3.07 -2.07,-4c-1.11,-0.93 -2.53,-1.4 -4.27,-1.4c-1.92,0 -3.44,0.5 -4.57,1.5c-1.13,0.99 -1.73,2.3 -1.82,3.9zm0,0" fill="#ffffff" fill-rule="nonzero" id="svg_15" transform="matrix(1 0 0 1 0 0)"/>
   <path d="m220.78,24.32l11.55,0l0,55.95l-11.55,0l0,-55.95zm0,0" fill="#ffb700" fill-rule="nonzero" id="svg_16"/>
   <g clip-path="url(#92eb6db69f)" clip-rule="nonzero" id="svg_17">
    <path d="m240.05,76.31c-3.72,-3.3 -5.57,-7.53 -5.57,-12.68c0,-5.17 1.93,-9.41 5.79,-12.72c3.88,-3.32 8.66,-4.98 14.37,-4.98c5.6,0 10.33,1.67 14.18,5.01c3.85,3.33 5.78,7.56 5.78,12.67c0,5.12 -1.88,9.34 -5.64,12.66c-3.76,3.33 -8.53,4.98 -14.32,4.98c-6.01,0 -10.87,-1.64 -14.59,-4.94zm8.93,-18.35c-1.49,1.47 -2.24,3.36 -2.24,5.65c0,2.3 0.72,4.18 2.16,5.64c1.43,1.45 3.33,2.18 5.67,2.18c2.26,0 4.13,-0.73 5.58,-2.21c1.46,-1.48 2.19,-3.35 2.19,-5.61c0,-2.29 -0.76,-4.18 -2.26,-5.65c-1.5,-1.48 -3.33,-2.22 -5.51,-2.22c-2.22,0 -4.08,0.74 -5.59,2.22zm0,0" fill="#ffb700" fill-rule="nonzero" id="svg_18"/>
   </g>
   <g clip-path="url(#a76c8bd143)" clip-rule="nonzero" id="svg_19" transform="matrix(1 0 0 1 0 0)">
    <path d="m38.63,81.19c-16.5,-0.1 -29.81,-13.53 -29.71,-29.99c0.09,-16.47 13.55,-29.74 30.06,-29.64c16.51,0.1 29.81,13.52 29.72,29.99c-0.09,16.46 -13.56,29.73 -30.07,29.64zm35.41,-30.69c-0.37,-0.32 -0.63,-0.68 -0.87,-1.08c-0.22,-0.4 -0.36,-0.83 -0.39,-1.3c-0.05,-0.47 -0.01,-0.92 0.14,-1.35c0.07,-0.22 0.17,-0.43 0.28,-0.63c0.1,-0.2 0.23,-0.4 0.37,-0.58c0.58,-0.74 1.46,-1.33 2.49,-1.53c0.01,0 0.01,0 0.01,0c-0.25,-1.24 -0.55,-2.47 -0.91,-3.67c0,0 0,0 -0.01,0c-1,0.3 -2.06,0.19 -2.92,-0.19c-0.43,-0.19 -0.8,-0.46 -1.14,-0.77c-0.33,-0.31 -0.59,-0.69 -0.76,-1.13c-0.38,-0.85 -0.32,-1.81 0,-2.68c0.33,-0.87 1,-1.7 1.92,-2.2c-0.59,-1.11 -1.25,-2.19 -1.95,-3.23c-0.89,0.59 -1.92,0.79 -2.85,0.68c-0.24,-0.03 -0.46,-0.08 -0.68,-0.15c-0.22,-0.06 -0.44,-0.15 -0.64,-0.25c-0.21,-0.1 -0.4,-0.22 -0.58,-0.37c-0.17,-0.14 -0.33,-0.3 -0.49,-0.48c-0.3,-0.36 -0.51,-0.77 -0.63,-1.21c-0.14,-0.43 -0.19,-0.89 -0.16,-1.36c0.08,-0.94 0.44,-1.9 1.19,-2.66c0,0 0,0 0,0c-0.89,-0.89 -1.83,-1.73 -2.82,-2.52c0,0 0,0 0,0c-0.67,0.83 -1.6,1.31 -2.52,1.47c-0.46,0.08 -0.94,0.1 -1.38,0.02c-0.23,-0.04 -0.44,-0.11 -0.65,-0.2c-0.21,-0.08 -0.43,-0.18 -0.62,-0.3c-0.78,-0.53 -1.3,-1.3 -1.51,-2.23c-0.21,-0.92 -0.14,-1.94 0.35,-2.89c0,0 0,-0.01 0,-0.01c-1.11,-0.58 -2.26,-1.11 -3.44,-1.57c0,0 0,0 0,0.01c-0.4,0.99 -1.14,1.7 -1.97,2.14c-0.84,0.45 -1.77,0.56 -2.67,0.32c-0.23,-0.06 -0.44,-0.16 -0.64,-0.27c-0.21,-0.11 -0.39,-0.22 -0.57,-0.37c-0.36,-0.28 -0.66,-0.64 -0.89,-1.05c-0.48,-0.8 -0.72,-1.81 -0.53,-2.86c0,0 0,0 0,-0.01c-1.23,-0.22 -2.49,-0.38 -3.76,-0.49c0,0.01 0,0.01 0,0.02c-0.09,1.06 -0.57,1.96 -1.24,2.63c-0.68,0.68 -1.53,1.05 -2.47,1.09c-0.94,0 -1.81,-0.35 -2.51,-1c-0.69,-0.64 -1.21,-1.52 -1.34,-2.58c0,0 0,-0.01 0,-0.01c-1.26,0.15 -2.51,0.36 -3.73,0.63c0,0 0,0.01 0,0.01c0.22,1.04 0.03,2.06 -0.42,2.87c-0.22,0.42 -0.51,0.8 -0.85,1.09c-0.17,0.15 -0.36,0.27 -0.55,0.39c-0.2,0.12 -0.41,0.22 -0.63,0.29c-0.9,0.28 -1.83,0.2 -2.69,-0.21c-0.85,-0.4 -1.61,-1.1 -2.05,-2.07c0,0 0,-0.01 0,-0.01c-1.16,0.51 -2.29,1.08 -3.38,1.7c0,0.01 0,0.01 0,0.02c0.27,0.45 0.43,0.95 0.5,1.43c0.07,0.49 0.05,0.96 -0.03,1.44c-0.09,0.47 -0.26,0.9 -0.5,1.28c-0.06,0.1 -0.13,0.19 -0.2,0.28c-0.06,0.09 -0.13,0.18 -0.21,0.27c-0.15,0.16 -0.33,0.32 -0.52,0.45c-0.19,0.14 -0.39,0.24 -0.6,0.33c-0.21,0.1 -0.42,0.17 -0.65,0.22c-0.44,0.1 -0.92,0.1 -1.38,0.04c-0.92,-0.12 -1.87,-0.58 -2.57,-1.37c0,-0.01 0,-0.01 0,-0.01c-0.95,0.83 -1.86,1.71 -2.73,2.62c0,0 0,0 0,0.01c0.78,0.72 1.18,1.67 1.29,2.61c0.05,0.47 0.02,0.93 -0.1,1.37c-0.1,0.44 -0.3,0.86 -0.59,1.23c-0.3,0.36 -0.63,0.67 -1.03,0.89c-0.2,0.11 -0.41,0.2 -0.64,0.27c-0.21,0.08 -0.43,0.14 -0.67,0.18c-0.92,0.14 -1.96,-0.02 -2.87,-0.57c-0.66,1.06 -1.27,2.17 -1.83,3.3c0.95,0.47 1.64,1.27 2.01,2.13c0.35,0.85 0.45,1.81 0.1,2.67c-0.15,0.45 -0.4,0.83 -0.72,1.16c-0.08,0.08 -0.16,0.16 -0.25,0.24c-0.08,0.07 -0.17,0.14 -0.26,0.21c-0.19,0.14 -0.39,0.26 -0.6,0.36c-0.84,0.42 -1.89,0.57 -2.91,0.3c-0.32,1.21 -0.57,2.45 -0.77,3.7c0,0 0,0 0,0c1.05,0.17 1.95,0.73 2.55,1.44c0.59,0.72 0.98,1.6 0.9,2.53c-0.03,0.94 -0.5,1.78 -1.17,2.42c-0.68,0.64 -1.64,1.1 -2.7,1.15c0.06,1.27 0.18,2.53 0.36,3.76c1.04,-0.14 2.06,0.13 2.86,0.63c0.2,0.12 0.38,0.27 0.54,0.42c0.17,0.16 0.32,0.33 0.46,0.51c0.29,0.36 0.49,0.77 0.59,1.23c0.12,0.45 0.15,0.91 0.06,1.35c-0.08,0.46 -0.23,0.89 -0.46,1.3c-0.46,0.81 -1.24,1.53 -2.23,1.88c-0.01,0 -0.01,0 -0.01,0c0.43,1.2 0.92,2.36 1.46,3.49c0.95,-0.45 2.01,-0.49 2.92,-0.24c0.89,0.25 1.69,0.77 2.16,1.58c0.26,0.4 0.4,0.83 0.46,1.29c0.05,0.45 0.05,0.91 -0.05,1.37c-0.1,0.46 -0.29,0.91 -0.56,1.34c-0.25,0.42 -0.59,0.8 -1.02,1.12c0,0 0,0 0,0c0.76,1.01 1.56,1.98 2.42,2.91c0,0 0,0 0,-0.01c0.79,-0.71 1.78,-1.06 2.71,-1.08c0.46,0 0.95,0.04 1.37,0.19c0.43,0.14 0.82,0.38 1.18,0.68c0.36,0.31 0.61,0.7 0.81,1.1c0.2,0.4 0.32,0.86 0.35,1.33c0.02,0.24 0.02,0.48 0,0.72c-0.02,0.24 -0.07,0.48 -0.12,0.71c-0.13,0.48 -0.34,0.95 -0.66,1.38c0,0 0,0 0,0c1.02,0.75 2.07,1.44 3.17,2.08c0,-0.01 0,-0.01 0,-0.01c0.54,-0.92 1.38,-1.53 2.27,-1.83c0.9,-0.32 1.83,-0.28 2.69,0.08c0.43,0.2 0.79,0.49 1.1,0.81c0.31,0.33 0.55,0.74 0.73,1.18c0.35,0.87 0.43,1.9 0.09,2.9c0,0.01 -0.01,0.01 -0.01,0.01c1.19,0.4 2.41,0.76 3.64,1.04c0.01,0 0.01,0 0.01,-0.01c0.12,-0.51 0.34,-0.98 0.61,-1.39c0.29,-0.4 0.63,-0.73 1.01,-1.02c0.76,-0.57 1.67,-0.82 2.6,-0.72c0.23,0.04 0.45,0.09 0.67,0.17c0.22,0.08 0.42,0.17 0.62,0.28c0.39,0.23 0.74,0.53 1.04,0.91c0.59,0.72 0.98,1.69 0.95,2.75c0,0 0,0 0,0.01c0.31,0.01 0.63,0.01 0.94,0.02c0.96,0 1.9,-0.03 2.84,-0.09c0,-0.01 0,-0.01 0,-0.01c-0.07,-1.06 0.28,-2.04 0.85,-2.78c0.28,-0.39 0.62,-0.71 1,-0.95c0.19,-0.13 0.39,-0.22 0.61,-0.3c0.21,-0.09 0.43,-0.16 0.66,-0.2c0.93,-0.14 1.84,0.08 2.62,0.62c0.4,0.27 0.75,0.59 1.05,0.98c0.29,0.4 0.53,0.86 0.67,1.37c0,0 0,0.01 0,0.01c1.23,-0.34 2.43,-0.73 3.6,-1.18c0,-0.01 0,-0.01 0,-0.02c-0.38,-0.98 -0.34,-2.02 -0.03,-2.9c0.32,-0.9 0.92,-1.61 1.75,-2.05c0.21,-0.1 0.43,-0.18 0.65,-0.24c0.22,-0.05 0.44,-0.1 0.67,-0.11c0.45,-0.04 0.91,0.02 1.37,0.16c0.89,0.27 1.76,0.85 2.34,1.74c0,0 0,0.01 0,0.01c1.07,-0.68 2.09,-1.41 3.09,-2.2c-0.01,0 -0.01,0 -0.01,0c-0.33,-0.41 -0.56,-0.87 -0.7,-1.34c-0.07,-0.24 -0.12,-0.48 -0.15,-0.71c-0.03,-0.25 -0.04,-0.48 -0.03,-0.72c0.02,-0.48 0.12,-0.93 0.3,-1.34c0.18,-0.42 0.42,-0.81 0.77,-1.13c0.35,-0.31 0.72,-0.57 1.15,-0.73c0.42,-0.16 0.89,-0.23 1.36,-0.24c0.93,-0.02 1.94,0.3 2.75,0.98c0,0 0,0 0,0c0.82,-0.96 1.59,-1.96 2.31,-3c0,0 0,0 0,0c-0.44,-0.3 -0.79,-0.67 -1.07,-1.08c-0.28,-0.41 -0.48,-0.86 -0.6,-1.32c-0.06,-0.22 -0.1,-0.46 -0.11,-0.68c-0.02,-0.23 -0.02,-0.46 0,-0.69c0.04,-0.45 0.18,-0.89 0.41,-1.29c0.43,-0.83 1.22,-1.38 2.11,-1.67c0.89,-0.29 1.95,-0.28 2.92,0.13c0.5,-1.15 0.94,-2.33 1.32,-3.54c-1.01,-0.32 -1.82,-1 -2.31,-1.8c-0.13,-0.2 -0.23,-0.4 -0.31,-0.62c-0.08,-0.21 -0.16,-0.43 -0.2,-0.65c-0.1,-0.45 -0.09,-0.9 0,-1.36c0.09,-0.46 0.27,-0.88 0.54,-1.25c0.14,-0.19 0.29,-0.36 0.45,-0.53c0.16,-0.16 0.34,-0.31 0.53,-0.44c0.77,-0.53 1.78,-0.85 2.83,-0.74c0.13,-1.24 0.21,-2.5 0.21,-3.77c-1.06,-0.01 -2.03,-0.43 -2.73,-1.04" fill="#ffffff" fill-rule="nonzero" id="svg_20"/>
   </g>
   <g clip-path="url(#1aee757f3d)" clip-rule="nonzero" id="svg_21"/>
   <g clip-path="url(#3bf852e864)" clip-rule="nonzero" id="svg_27"/>
   <path d="m38.92,25.73c14.26,0 25.83,11.54 25.83,25.77c0,14.23 -11.57,25.77 -25.83,25.77c-14.28,0 -25.84,-11.54 -25.84,-25.77c0,-14.23 11.56,-25.77 25.84,-25.77zm10.83,21.02l-10.74,-6.18l-10.74,6.18l10.74,6.18l10.74,-6.18zm-23.36,-1.32l10.97,-6.32l-2.78,-3c-0.21,-0.23 -0.54,-0.28 -0.81,-0.12l-9.8,5.64c-0.18,0.1 -0.29,0.27 -0.33,0.47c-0.02,0.2 0.04,0.39 0.17,0.54l2.58,2.79zm14.26,-6.33l10.98,6.32l2.4,-2.69c0.13,-0.15 0.18,-0.34 0.15,-0.54c-0.03,-0.2 -0.14,-0.36 -0.31,-0.46l-9.82,-5.65c-0.27,-0.15 -0.61,-0.1 -0.82,0.13l-2.58,2.89zm10.14,9.45l-10.73,6.18l0,12.37l10.4,-5.99c0.21,-0.12 0.33,-0.32 0.33,-0.57l0,-11.99zm-12.83,18.55l0,-12.37l-10.73,-6.18l0,11.99c0,0.25 0.12,0.45 0.33,0.57l10.4,5.99zm0,0" fill="#000814" fill-rule="evenodd" id="svg_31"/>
   <g clip-path="url(#9d7846a0e4)" clip-rule="nonzero" id="svg_32">
    <g clip-path="url(#2dd95234ea)" clip-rule="nonzero" id="svg_33">
     <path d="m128.18,25.73l14.57,0l0,14.53l-14.57,0l0,-14.53zm0,0" fill="#ffb700" fill-rule="nonzero" id="svg_34"/>
    </g>
   </g>
  </g>
 </g>
</svg>